<svg xmlns="http://www.w3.org/2000/svg" style="display:none">
<symbol id="icon_cd" viewBox="0 0 64 64">
  <path d="M32 6c14.36 0 26 11.64 26 26S46.36 58 32 58 6 46.36 6 32 17.64 6 32 6Z" stroke="rgba(233,233,242,.7)" stroke-width="2"/>
  <path d="M20 34c8-12 16-12 24 0" stroke="rgba(124,227,255,.9)" stroke-width="3" stroke-linecap="round"/>
  <path d="M16 44c10 8 22 8 32 0" stroke="rgba(255,213,74,.9)" stroke-width="3" stroke-linecap="round"/>
  <circle cx="32" cy="22" r="3" fill="rgba(176,123,255,.9)"/>
</symbol>
<symbol id="icon_everyday" viewBox="0 0 64 64">
  <path d="M20 38c0 9 5 16 12 16s12-7 12-16" stroke="rgba(233,233,242,.7)" stroke-width="2.5" stroke-linecap="round"/>
  <path d="M18 26c3-6 8-10 14-10s11 4 14 10" stroke="rgba(124,227,255,.9)" stroke-width="3" stroke-linecap="round"/>
  <path d="M14 26h36" stroke="rgba(255,213,74,.8)" stroke-width="2" stroke-dasharray="4 4"/>
  <circle cx="24" cy="30" r="2" fill="rgba(176,123,255,.9)"/>
  <circle cx="40" cy="30" r="2" fill="rgba(176,123,255,.9)"/>
</symbol>
<symbol id="icon_education" viewBox="0 0 64 64">
  <path d="M10 26l22-10 22 10-22 10-22-10Z" stroke="rgba(124,227,255,.9)" stroke-width="2.5" stroke-linejoin="round"/>
  <path d="M18 32v10c0 6 28 6 28 0V32" stroke="rgba(233,233,242,.7)" stroke-width="2.5" stroke-linecap="round"/>
  <path d="M50 30v12" stroke="rgba(255,213,74,.9)" stroke-width="2.5" stroke-linecap="round"/>
  <path d="M50 42c0 4-6 6-6 6" stroke="rgba(255,213,74,.9)" stroke-width="2.5" stroke-linecap="round"/>
</symbol>
<symbol id="icon_institutions" viewBox="0 0 64 64">
  <path d="M12 28l20-12 20 12" stroke="rgba(124,227,255,.9)" stroke-width="2.5" stroke-linecap="round" stroke-linejoin="round"/>
  <path d="M16 28v22M28 28v22M36 28v22M48 28v22" stroke="rgba(233,233,242,.7)" stroke-width="2.5" stroke-linecap="round"/>
  <path d="M12 50h40" stroke="rgba(255,213,74,.9)" stroke-width="2.5" stroke-linecap="round"/>
</symbol>
<symbol id="icon_ecological" viewBox="0 0 64 64">
  <path d="M18 44c8-18 20-26 28-24-2 10-10 22-28 24Z" stroke="rgba(124,227,255,.9)" stroke-width="2.5" stroke-linejoin="round"/>
  <path d="M18 44c2-10 10-18 20-22" stroke="rgba(233,233,242,.7)" stroke-width="2.5" stroke-linecap="round"/>
  <path d="M14 50c10 6 26 6 36 0" stroke="rgba(255,213,74,.9)" stroke-width="2.5" stroke-linecap="round"/>
</symbol>
<symbol id="icon_governance" viewBox="0 0 64 64">
  <path d="M32 10l18 8v14c0 14-10 22-18 24-8-2-18-10-18-24V18l18-8Z" stroke="rgba(124,227,255,.9)" stroke-width="2.5" stroke-linejoin="round"/>
  <path d="M24 34l6 6 12-14" stroke="rgba(255,213,74,.9)" stroke-width="3" stroke-linecap="round" stroke-linejoin="round"/>
</symbol>
</svg>
